<svg id="Layer_1" data-name="Layer 1" xmlns="http://www.w3.org/2000/svg" viewBox="0 0 242.83 117.17"><defs><style>.cls-1{fill:#2a2a2a;}.cls-2{fill:#fff;}</style></defs><title>logo</title><rect class="cls-1" x="129.77" y="70.55" width="21.07" height="2.61" transform="translate(-16.19 90.79) rotate(-34.02)"/><rect class="cls-1" x="171.12" y="52.32" width="13.42" height="2.82" transform="translate(0.38 108.69) rotate(-34.02)"/><path class="cls-2" d="M101.54,0Q87.44,37.74,73.35,75.49,59.27,37.75,45.2,0H0L.18,117.05H20.35l.39-95h8.61L53.29,94.94l38.08.11q12.91-36.42,25.81-72.84H126q0,44.05,0,88.09l22.65-15.38Q148.34,47.46,148,0Z"/><path class="cls-2" d="M214.76,75.12l20.82-13.33,7.07,6.7v38.05q-5.61,5.31-11.21,10.63H125.89L159.37,95l59.06.11,0-16.46Q216.61,76.89,214.76,75.12Z"/><path class="cls-2" d="M126,110.3l22.65-15.38,0-23.57,62.52-.08L232.8,56.65l10-9.51V11.06L231.59,0H126Q126,55.16,126,110.3Z"/><path class="cls-1" d="M211.1,49.38,221.71,39V22.21l-73.07,0V49.38Z"/></svg>
